<svg xmlns="http://www.w3.org/2000/svg" viewBox="0 0 1280 720">
  <defs>
    <linearGradient id="bg" x1="0%" y1="0%" x2="100%" y2="100%">
      <stop offset="0%" stop-color="#0f172a" />
      <stop offset="100%" stop-color="#1e293b" />
    </linearGradient>
    <linearGradient id="laser" x1="0%" y1="0%" x2="100%" y2="0%">
      <stop offset="0%" stop-color="#38bdf8" />
      <stop offset="100%" stop-color="#a855f7" />
    </linearGradient>
  </defs>
  <rect width="1280" height="720" fill="url(#bg)" />
  <rect x="120" y="80" width="720" height="560" rx="48" fill="#111827" opacity="0.85" />
  <g transform="translate(220 140)">
    <rect width="520" height="400" rx="36" fill="#0b1120" stroke="#1f2937" stroke-width="4" />
    <g fill="none" stroke="#1e3a8a" stroke-width="2" opacity="0.4">
      <path d="M40 0v400M120 0v400M200 0v400M280 0v400M360 0v400M440 0v400" />
      <path d="M0 40h520M0 120h520M0 200h520M0 280h520M0 360h520" />
    </g>
    <path d="M40 320 L200 320" stroke="url(#laser)" stroke-width="12" stroke-linecap="round" />
    <path d="M200 320 L200 160" stroke="url(#laser)" stroke-width="12" stroke-linecap="round" />
    <path d="M200 160 L360 160" stroke="url(#laser)" stroke-width="12" stroke-linecap="round" />
    <circle cx="360" cy="160" r="28" fill="#facc15" />
    <rect x="180" y="300" width="40" height="40" rx="8" fill="#f8fafc" opacity="0.8" />
    <rect x="180" y="140" width="40" height="40" rx="8" fill="#f8fafc" opacity="0.8" />
  </g>
  <g transform="translate(920 120)">
    <rect width="220" height="120" rx="24" fill="#1e293b" opacity="0.9" />
    <text x="110" y="60" font-family="'Inter', sans-serif" font-weight="600" font-size="36" fill="#f8fafc" text-anchor="middle">
      Intro Reflect
    </text>
    <text x="110" y="90" font-family="'Inter', sans-serif" font-size="20" fill="#94a3b8" text-anchor="middle">
      Difficulty: Easy
    </text>
  </g>
  <g transform="translate(920 280)">
    <rect width="220" height="180" rx="28" fill="#0f172a" opacity="0.9" />
    <text x="110" y="56" font-family="'Inter', sans-serif" font-size="24" fill="#f8fafc" text-anchor="middle">
      Target Status
    </text>
    <text x="110" y="100" font-family="'Inter', sans-serif" font-size="18" fill="#38bdf8" text-anchor="middle">
      North Node: 1 / 1
    </text>
    <text x="110" y="136" font-family="'Inter', sans-serif" font-size="18" fill="#38bdf8" text-anchor="middle">
      Beam Integrity: 72%
    </text>
  </g>
  <g transform="translate(920 520)">
    <rect width="220" height="120" rx="28" fill="#0e7490" />
    <text x="110" y="72" font-family="'Inter', sans-serif" font-size="28" fill="#ecfeff" text-anchor="middle">
      Fire Laser
    </text>
  </g>
</svg>
